# xmcd
#
# Track frame offsets:
#	150
#	11621
#	27370
#	42925
#	55025
#	67745
#	83959
#	101269
#	116891
#	130616
#	141824
#	152372
#	164974
#	176494
#	193165
#	202707
#	213323
#	227731
#	242562
#	251930
#	270815
#	285825
#
# Disc length: 4070 seconds
#
# Revision: 2
# Processed by: cddbd v1.5.2PL0 Copyright (c) Steve Scherf et al.
# Submitted via: audiograbber 1.83.01
#
DISCID=230fe416
DTITLE=E. H. King Music - E. H. King Music 084
DYEAR=2007
DGENRE=Country
TTITLE0=I Know You No No  - Mandy Taylor
TTITLE1=Hokie Heaven  - T J Murr
TTITLE2=Mr Cowboy  - Tammy Powell
TTITLE3=Happy Is The Heart  - Ray R Jones
TTITLE4=You Gotta Love Ém - Jeff Potter
TTITLE5=Goodbye Lonesome Blues  - Loman Craig
TTITLE6=A Prayer Away - Tammy Powell
TTITLE7=Cry Me A Onion  - T J Murr
TTITLE8=Rain From Heaven  - Ray R Jones
TTITLE9=The Hardest Thing Now - Red Atkins
TTITLE10=Crying In The Corner  - David Fox
TTITLE11=Lonesome George  - Buddy Max
TTITLE12=Back It Up - Don Powell
TTITLE13=In God We Trust  - Red Atkins
TTITLE14=I Crave At The Office  - David Fox
TTITLE15=Country Kicks And Guitar Licks - Red Atkins
TTITLE16=Crime Pays When  - Loman Craig
TTITLE17=Tried Too Hard Cried Too Hard  - Phil Coley
TTITLE18=How Will I Face Tomorrow  - Ray R Jones
TTITLE19=Nothing Minus Everthing  - Roger Eydenburgh
TTITLE20=Your´re Not Sorry, Just Painful  - Sonny Payne
TTITLE21=My Family Apron  - Barbara Dunn
EXTD=
EXTT0=
EXTT1=
EXTT2=
EXTT3=
EXTT4=
EXTT5=
EXTT6=
EXTT7=
EXTT8=
EXTT9=
EXTT10=
EXTT11=
EXTT12=
EXTT13=
EXTT14=
EXTT15=
EXTT16=
EXTT17=
EXTT18=
EXTT19=
EXTT20=
EXTT21=
PLAYORDER=
